#N canvas 39 112 961 544 10;
#X declare -lib mrpeach;
#X obj 265 -225 unpackOSC;
#X obj 259 -271 udpreceive 9999;
#X obj 384 -183 route /hello;
#X obj 204 -148 print received;
#N canvas 305 138 896 517 TIMINGSTUFF 0;
#X obj 166 -19 inlet;
#X text 157 -42 osc hello messages;
#X obj 118 51 packOSC;
#X obj 73 222 udpsend;
#X msg 180 186 disconnect;
#X msg 261 60 connect 127.0.0.1 7777;
#X obj 320 -49 import mrpeach;
#X obj 528 90 tgl 15 0 empty empty empty 17 7 0 10 -262144 -1 -1 1
1;
#X obj 524 134 metro 250;
#X obj 143 238 udpsend;
#X msg 250 203 disconnect;
#X msg 322 183 connect 127.0.0.1 7778;
#X obj 508 281 sel 0;
#X obj 505 234 counter 15;
#X msg 486 373 send /sync/start;
#X msg 532 322 send /sync/bang;
#X obj 180 271 udpsend;
#X msg 284 253 disconnect;
#X msg 396 218 connect 127.0.0.1 7779;
#X obj 525 37 loadbang;
#X msg 534 63 1;
#X obj 255 26 sel 7777 7778 7779;
#X obj 150 151 spigot;
#X obj 269 162 spigot;
#X obj 358 155 spigot;
#X obj 199 129 tgl 15 0 empty empty empty 17 7 0 10 -262144 -1 -1 0
1;
#X obj 385 130 tgl 15 0 empty empty empty 17 7 0 10 -262144 -1 -1 0
1;
#X obj 302 124 tgl 15 0 empty empty empty 17 7 0 10 -262144 -1 -1 0
1;
#X connect 0 0 21 0;
#X connect 2 0 22 0;
#X connect 2 0 23 0;
#X connect 2 0 24 0;
#X connect 3 0 25 0;
#X connect 4 0 3 0;
#X connect 5 0 3 0;
#X connect 7 0 8 0;
#X connect 8 0 13 0;
#X connect 9 0 27 0;
#X connect 10 0 9 0;
#X connect 11 0 9 0;
#X connect 12 0 14 0;
#X connect 12 1 15 0;
#X connect 13 0 12 0;
#X connect 14 0 2 0;
#X connect 15 0 2 0;
#X connect 16 0 26 0;
#X connect 17 0 16 0;
#X connect 18 0 16 0;
#X connect 19 0 20 0;
#X connect 20 0 7 0;
#X connect 21 0 5 0;
#X connect 21 1 11 0;
#X connect 21 2 18 0;
#X connect 22 0 3 0;
#X connect 23 0 9 0;
#X connect 24 0 16 0;
#X connect 25 0 22 1;
#X connect 26 0 24 1;
#X connect 27 0 23 1;
#X restore 400 -137 pd TIMINGSTUFF;
#X obj 198 -224 tgl 15 0 empty empty empty 17 7 0 10 -262144 -1 -1
0 1;
#X text 196 -250 DEBUG OSC;
#X obj 221 -183 spigot;
#X text 374 -217 add osc messages from perl here;
#X connect 0 0 2 0;
#X connect 0 0 7 0;
#X connect 1 0 0 0;
#X connect 2 0 4 0;
#X connect 5 0 7 1;
#X connect 7 0 3 0;
