#N canvas 323 369 450 386 10;
#X obj 198 57 notein;
#X obj 122 174 == \$1;
#X obj 191 134 f;
#X obj 139 100 t b f;
#X obj 158 221 spigot;
#X obj 153 299 outlet;
#X connect 0 0 3 0;
#X connect 0 1 2 1;
#X connect 1 0 4 1;
#X connect 2 0 4 0;
#X connect 3 0 2 0;
#X connect 3 1 1 0;
#X connect 4 0 5 0;
