#N canvas 433 184 847 435 10;
#X obj 38 44 inlet;
#X obj 51 75 t f b;
#X obj 192 142 -;
#X obj 254 109 -;
#X obj 203 6 t b b b b;
#X obj 359 134 -;
#X text 554 168 y = ((x - a) / (b - a)) * (d - c) + c;
#X obj 214 193 /;
#X obj 228 239 *;
#X obj 262 259 +;
#X obj 271 314 outlet;
#X obj 339 173 * -1;
#X obj 245 149 * -1;
#X obj 370 299 outlet;
#X obj 431 308 outlet;
#X obj 502 305 outlet;
#X obj 561 309 outlet;
#X obj 186 45 float \$1;
#X obj 292 56 float \$2;
#X obj 358 59 float \$3;
#X obj 459 70 float \$4;
#X connect 0 0 1 0;
#X connect 1 0 2 0;
#X connect 1 1 4 0;
#X connect 2 0 7 0;
#X connect 3 0 12 0;
#X connect 4 0 17 0;
#X connect 4 1 18 0;
#X connect 4 2 19 0;
#X connect 4 3 20 0;
#X connect 5 0 11 0;
#X connect 7 0 8 0;
#X connect 8 0 9 0;
#X connect 9 0 10 0;
#X connect 11 0 8 1;
#X connect 12 0 7 1;
#X connect 17 0 2 1;
#X connect 17 0 3 0;
#X connect 17 0 13 0;
#X connect 18 0 3 1;
#X connect 18 0 14 0;
#X connect 19 0 5 0;
#X connect 19 0 9 1;
#X connect 19 0 15 0;
#X connect 20 0 5 1;
#X connect 20 0 16 0;
