#N canvas 0 0 1920 980 10;
#X obj 164 325 tabread4~ bass1;
#X obj 397 278 tabread4~ guitar;
#X obj 270 236 tabread4~ bass2;
#X obj 117 68 soundfiler;
#X obj 144 164 f;
#X obj 129 221 pack;
#X obj 200 168 / 44.1;
#X obj 130 263 line~;
#N canvas 0 0 1131 383 arrays 0;
#N canvas 0 0 450 300 (subpatch) 0;
#X array guitar 1.04076e+007 float 2;
#X coords 0 1 1.04076e+007 -1 200 140 1;
#X restore 358 18 graph;
#N canvas 0 0 450 300 (subpatch) 0;
#X array bass1 1.04076e+007 float 2;
#X coords 0 1 1.04076e+007 -1 200 140 1;
#X restore 637 8 graph;
#N canvas 0 0 450 300 (subpatch) 0;
#X array bass2 1.04076e+007 float 2;
#X coords 0 1 1.04076e+007 -1 200 140 1;
#X restore 101 16 graph;
#X restore 300 179 pd arrays;
#X obj 214 111 soundfiler;
#X obj 329 141 soundfiler;
#X obj 334 -10 bng 15 250 50 0 empty empty empty 17 7 0 10 -262144
-1 -1;
#X obj 281 562 dac~;
#X obj 241 478 s~ sg;
#X obj 155 407 r~ sg;
#X msg 110 30 read -resize -maxsize 1.323e+008 02_guitarfoo.wav guitar
;
#X msg 209 72 read -resize -maxsize 1.323e+008 03_guitarfoo.wav bass1
;
#X msg 324 106 read -resize -maxsize 1.323e+008 04_guitarfoo.wav bass2
;
#X floatatom 731 43 5 0 0 0 - - -;
#X msg 84 269 0;
#X obj 727 7 readcc 71;
#X obj 653 2 readnote 60;
#X floatatom 650 30 5 0 0 0 - - -;
#X obj 770 313 noise~;
#X obj 796 359 *~;
#X obj 675 357 phasor~;
#X obj 689 380 expr~ $v1 > 0.5;
#X obj 805 398 *~;
#X obj 887 435 bp~ 600 10;
#X obj 897 389 line;
#X obj 929 301 tgl 15 0 empty empty empty 17 7 0 10 -262144 -1 -1 0
1;
#X obj 670 297 readcc 1;
#X obj 906 271 readcc 2;
#X obj 919 340 metro 4000;
#X msg 905 369 200 \, 800 4000;
#X obj 743 241 readnote 1;
#X obj 827 295 line~;
#X msg 755 271 \$1 5;
#X obj 772 142 ctlin;
#X floatatom 781 179 5 0 0 0 - - -;
#X floatatom 750 177 5 0 0 0 - - -;
#X obj 665 590 s~ fx;
#X obj 379 406 r~ fx;
#X text 864 -3 cc 1 noise chopper freq;
#X text 863 17 cc 2 bandpass filter metro active;
#X text 1127 -5 note 1 play chopped/filtered noise;
#X obj 57 74 readcc 3;
#X text 865 37 cc 3 (bang) start backing track;
#X obj 77 101 t b b;
#X text 868 57 cc 4 backing track volume (fading);
#X obj 12 204 readcc 4;
#X msg 9 242 \$1 8000;
#X obj 49 356 line~;
#X msg 13 317 1;
#X obj 12 275 loadbang;
#X text 863 75 cc 5 (bang) stop backing track;
#X obj 17 133 readcc 5;
#X obj 24 160 t b;
#X obj 120 453 *~;
#X obj 504 552 *~;
#X obj 486 446 sig~;
#X msg 493 357 1 0;
#X obj 490 382 drip 80;
#X obj 420 0 loadbang;
#X obj 423 452 osc~ 1200;
#X obj 410 367 readcc 6;
#X text 866 95 cc 6 beep frequency;
#X text 1126 15 note 2 (mp:on) trigger beep;
#X obj 574 337 readnote 2;
#X obj 570 375 t b;
#X obj 479 216 osc~;
#X obj 479 140 readcc 7;
#X obj 566 147 readcc 8;
#X text 865 115 cc 7 guitar wavetable mod freq;
#X text 862 138 cc 8 guitar wavetable mod amt;
#X obj 501 243 *~;
#X obj 558 209 sig~;
#X obj 459 176 sc 0 127 1 80;
#X obj 404 252 +~;
#X obj 573 177 sc 0 127 0 1000;
#X obj 379 323 tabread4~ guitar;
#X obj 370 308 *~;
#X obj 611 221 sc 0 127 0 1;
#X obj 574 247 sig~;
#X obj 544 291 expr 1 - $f1;
#X obj 514 318 sig~;
#X obj 337 354 *~;
#N canvas 0 0 665 363 drumsamples 0;
#N canvas 0 0 450 300 (subpatch) 0;
#X array kick 35624 float 2;
#X coords 0 1 35624 -1 200 140 1;
#X restore 359 2 graph;
#N canvas 0 0 450 300 (subpatch) 0;
#X array snare 6168 float 2;
#X coords 0 1 6168 -1 200 140 1;
#X restore 350 199 graph;
#N canvas 0 0 450 300 (subpatch) 0;
#X array hihat 3850 float 2;
#X coords 0 1 3850 -1 200 140 1;
#X restore 100 20 graph;
#X restore 1089 375 pd drumsamples;
#X msg 1183 395 read -resize kick.wav kick;
#X obj 1067 429 sampler;
#X obj 1030 474 tabread4~ kick;
#X obj 282 374 *~ 2;
#X obj 1144 481 sampler;
#X obj 1337 482 sampler;
#X obj 1302 356 loadbang;
#X obj 1054 281 t b;
#X obj 1228 317 t b;
#X msg 1172 424 read -resize snare.wav snare;
#X msg 1348 418 read -resize hihat.wav hihat;
#X obj 1387 355 t b;
#X obj 1126 314 sc 0 127 0.2 6;
#X obj 1306 306 sc 0 127 0.2 6;
#X obj 1429 387 sc 0 127 0.2 6;
#X obj 1054 253 readnote 3;
#X obj 1153 256 readcc 9;
#X obj 1391 329 readnote 5;
#X text 1125 41 note 3 (mp:on) trigger kick;
#X text 1125 65 note 4 (mp:on) trigger snare;
#X text 1123 88 note 5 (mp:on) trigger hihat;
#X text 865 159 cc 9 kick pitch;
#X text 867 182 cc 10 snare pitch;
#X text 864 206 cc 11 hihat pitch;
#X obj 1236 290 readnote 4;
#X obj 1317 264 readcc 10;
#X obj 1203 512 tabread4~ snare;
#X obj 1323 533 tabread4~ hihat;
#X obj 1447 345 readcc 11;
#X obj 797 566 *~ 0.6;
#X obj 411 219 *~ 0.8;
#X msg 415 610 open -bytes 3 capture.wav;
#X msg 301 623 start;
#X msg 197 649 stop;
#X obj 282 430 *~;
#X obj 216 408 osc~ 0;
#X obj 116 342 readcc 12;
#X obj 125 374 sc 0 127 0 40;
#X text 869 224 cc 12 ringmod freq;
#X obj 76 143 s sync;
#X obj 1242 584 r sync;
#X msg 1243 622 0;
#X obj 1213 707 *~;
#X obj 497 722 writesf~ 7;
#X obj 328 460 *~ 0.2;
#X obj 1310 650 mtof 39;
#X obj 1332 564 loadbang;
#X obj 1167 746 *~;
#X obj 1123 643 readcc 13;
#X text 872 246 cc 13 bass amp;
#X obj 1129 676 sc 0 127 0 1;
#X obj 1138 709 sig~;
#X msg 1319 595 40;
#X obj 1301 696 osc~;
#X obj 1214 661 osc~ 2;
#X obj 34 113 bng 15 250 50 0 empty empty empty 17 7 0 10 -262144 -1
-1;
#X msg 515 289 1;
#X obj 30 32 bng 15 250 50 0 empty empty empty 17 7 0 10 -262144 -1
-1;
#X connect 0 0 91 0;
#X connect 1 0 81 0;
#X connect 2 0 91 0;
#X connect 3 0 4 1;
#X connect 3 0 6 0;
#X connect 4 0 5 0;
#X connect 5 0 7 0;
#X connect 6 0 5 1;
#X connect 7 0 0 0;
#X connect 7 0 2 0;
#X connect 7 0 78 0;
#X connect 7 0 80 0;
#X connect 11 0 17 0;
#X connect 11 0 16 0;
#X connect 11 0 15 0;
#X connect 14 0 58 1;
#X connect 15 0 3 0;
#X connect 16 0 9 0;
#X connect 17 0 10 0;
#X connect 19 0 7 0;
#X connect 20 0 18 0;
#X connect 21 0 22 0;
#X connect 23 0 24 0;
#X connect 24 0 27 1;
#X connect 25 0 26 0;
#X connect 26 0 27 0;
#X connect 27 0 28 0;
#X connect 28 0 41 0;
#X connect 28 0 131 2;
#X connect 29 0 28 1;
#X connect 30 0 33 0;
#X connect 31 0 25 0;
#X connect 32 0 30 0;
#X connect 33 0 34 0;
#X connect 34 0 29 0;
#X connect 35 0 37 0;
#X connect 36 0 24 1;
#X connect 37 0 36 0;
#X connect 38 0 40 0;
#X connect 38 1 39 0;
#X connect 42 0 132 0;
#X connect 46 0 48 0;
#X connect 48 0 127 0;
#X connect 48 0 143 0;
#X connect 48 1 4 0;
#X connect 50 0 51 0;
#X connect 51 0 52 0;
#X connect 52 0 58 0;
#X connect 53 0 52 0;
#X connect 54 0 53 0;
#X connect 56 0 57 0;
#X connect 57 0 19 0;
#X connect 58 0 12 0;
#X connect 58 0 12 1;
#X connect 58 0 131 0;
#X connect 59 0 41 0;
#X connect 59 0 131 1;
#X connect 60 0 59 1;
#X connect 61 0 62 0;
#X connect 62 0 60 0;
#X connect 63 0 11 0;
#X connect 63 0 144 0;
#X connect 64 0 59 0;
#X connect 65 0 64 1;
#X connect 68 0 69 0;
#X connect 69 0 61 0;
#X connect 70 0 75 0;
#X connect 71 0 77 0;
#X connect 72 0 79 0;
#X connect 72 0 82 0;
#X connect 75 0 118 0;
#X connect 76 0 75 1;
#X connect 77 0 70 0;
#X connect 78 0 1 0;
#X connect 79 0 76 0;
#X connect 80 0 86 0;
#X connect 81 0 91 0;
#X connect 82 0 83 0;
#X connect 82 0 84 0;
#X connect 83 0 81 1;
#X connect 84 0 85 0;
#X connect 85 0 86 1;
#X connect 86 0 91 0;
#X connect 88 0 89 1;
#X connect 89 0 90 0;
#X connect 90 0 41 0;
#X connect 90 0 131 3;
#X connect 91 0 122 1;
#X connect 92 0 114 0;
#X connect 93 0 115 0;
#X connect 94 0 88 0;
#X connect 94 0 97 0;
#X connect 94 0 98 0;
#X connect 95 0 89 0;
#X connect 96 0 92 0;
#X connect 97 0 92 1;
#X connect 98 0 93 1;
#X connect 99 0 93 0;
#X connect 100 0 89 2;
#X connect 101 0 92 2;
#X connect 102 0 93 2;
#X connect 103 0 95 0;
#X connect 104 0 100 0;
#X connect 105 0 99 0;
#X connect 112 0 96 0;
#X connect 113 0 101 0;
#X connect 114 0 41 0;
#X connect 114 0 131 4;
#X connect 115 0 117 0;
#X connect 116 0 102 0;
#X connect 117 0 41 0;
#X connect 117 0 131 5;
#X connect 118 0 78 1;
#X connect 119 0 131 0;
#X connect 120 0 131 0;
#X connect 121 0 131 0;
#X connect 122 0 13 0;
#X connect 123 0 122 0;
#X connect 124 0 125 0;
#X connect 125 0 123 0;
#X connect 128 0 129 0;
#X connect 129 0 142 1;
#X connect 130 0 135 1;
#X connect 132 0 12 0;
#X connect 132 0 12 1;
#X connect 133 0 141 0;
#X connect 134 0 140 0;
#X connect 135 0 131 6;
#X connect 135 0 41 0;
#X connect 136 0 138 0;
#X connect 138 0 139 0;
#X connect 139 0 135 0;
#X connect 140 0 133 0;
#X connect 141 0 130 1;
#X connect 142 0 130 0;
#X connect 144 0 85 0;
#X connect 145 0 48 0;
